<?xml version="1.0" encoding="UTF-8" standalone="no"?>
<svg
   xmlns:dc="http://purl.org/dc/elements/1.1/"
   xmlns:cc="http://creativecommons.org/ns#"
   xmlns:rdf="http://www.w3.org/1999/02/22-rdf-syntax-ns#"
   xmlns:svg="http://www.w3.org/2000/svg"
   xmlns="http://www.w3.org/2000/svg"
   xmlns:sodipodi="http://sodipodi.sourceforge.net/DTD/sodipodi-0.dtd"
   xmlns:inkscape="http://www.inkscape.org/namespaces/inkscape"
   version="1.0"
   width="191.58923mm"
   height="86.359772mm"
   id="svg3336"
   inkscape:version="0.48.5 r10040"
   viewBox="0 0 191.58923 86.35977"
   sodipodi:docname="threading.svg">
  <metadata
     id="metadata3517">
    <rdf:RDF>
      <cc:Work
         rdf:about="">
        <dc:format>image/svg+xml</dc:format>
        <dc:type
           rdf:resource="http://purl.org/dc/dcmitype/StillImage" />
        <dc:title />
      </cc:Work>
    </rdf:RDF>
  </metadata>
  <sodipodi:namedview
     pagecolor="#ffffff"
     bordercolor="#666666"
     borderopacity="1"
     objecttolerance="10"
     gridtolerance="10"
     guidetolerance="10"
     inkscape:pageopacity="0"
     inkscape:pageshadow="2"
     inkscape:window-width="1986"
     inkscape:window-height="1129"
     id="namedview3515"
     inkscape:document-units="mm"
     showgrid="false"
     inkscape:zoom="0.6710759"
     inkscape:cx="263.99287"
     inkscape:cy="113.84552"
     inkscape:window-x="54"
     inkscape:window-y="155"
     inkscape:window-maximized="1"
     inkscape:current-layer="svg3336"
     fit-margin-top="0"
     fit-margin-left="0"
     fit-margin-right="0"
     fit-margin-bottom="0" />
  <defs
     id="defs3338">
    <pattern
       id="EMFhbasepattern"
       patternUnits="userSpaceOnUse"
       width="6"
       height="6"
       x="0"
       y="0" />
  </defs>
  <path
     style="fill:#ffffff;fill-opacity:1;fill-rule:evenodd;stroke:none"
     d="m -8.6127393e-6,0 0,86.35978 L 191.58925,86.35978 191.58925,0 -8.6127393e-6,0 Z"
     id="path3341"
     inkscape:connector-curvature="0" />
  <path
     style="fill:#ffffff;fill-opacity:1;fill-rule:evenodd;stroke:none"
     d="m 98.230454,63.58883 0,15.78581 85.066016,0 0,-15.78581 -85.066016,0 z"
     id="path3343"
     inkscape:connector-curvature="0" />
  <path
     style="fill:#41719c;fill-opacity:1;fill-rule:nonzero;stroke:#41719c;stroke-width:0.01058036px;stroke-linecap:butt;stroke-linejoin:round;stroke-miterlimit:4;stroke-dasharray:none;stroke-opacity:1"
     d="m 98.061124,79.37464 0,-1.01571 0.33867,0 0,1.01571 -0.33867,0 z m 0,-1.35438 0,-1.01572 0.33867,0 0,1.01572 -0.33867,0 z m 0,-1.35439 0,-1.01571 0.33867,0 0,1.01571 -0.33867,0 z m 0,-1.3541 0,-1.01572 0.33867,0 0,1.01572 -0.33867,0 z m 0,-1.35438 0,-1.01572 0.33867,0 0,1.01572 -0.33867,0 z m 0,-1.3541 0,-1.01572 0.33867,0 0,1.01572 -0.33867,0 z m 0,-1.35439 0,-1.01572 0.33867,0 0,1.01572 -0.33867,0 z m 0,-1.35438 0,-1.01572 0.33867,0 0,1.01572 -0.33867,0 z m 0,-1.35411 0,-1.01571 0.33867,0 0,1.01571 -0.33867,0 z m 0,-1.35438 0,-1.01572 0.33867,0 0,1.01572 -0.33867,0 z m 0,-1.35438 0,-1.01572 0.33867,0 0,1.01572 -0.33867,0 z m 0,-1.35411 0,-1.05805 0.29633,0 0,0.33839 -0.127,0 0.16934,-0.16905 0,0.88871 -0.33867,0 z m 0.635,-1.05805 1.01572,0 0,0.33839 -1.01572,0 0,-0.33839 z m 1.354096,0 1.01572,0 0,0.33839 -1.01572,0 0,-0.33839 z m 1.35439,0 1.01571,0 0,0.33839 -1.01571,0 0,-0.33839 z m 1.35438,0 1.01572,0 0,0.33839 -1.01572,0 0,-0.33839 z m 1.3541,0 1.01572,0 0,0.33839 -1.01572,0 0,-0.33839 z m 1.35439,0 1.01571,0 0,0.33839 -1.01571,0 0,-0.33839 z m 1.3541,0 1.01573,0 0,0.33839 -1.01573,0 0,-0.33839 z m 1.35439,0 1.01572,0 0,0.33839 -1.01572,0 0,-0.33839 z m 1.35439,0 1.01572,0 0,0.33839 -1.01572,0 0,-0.33839 z m 1.3541,0 1.01572,0 0,0.33839 -1.01572,0 0,-0.33839 z m 1.35438,0 1.01572,0 0,0.33839 -1.01572,0 0,-0.33839 z m 1.35439,0 1.01572,0 0,0.33839 -1.01572,0 0,-0.33839 z m 1.3541,0 1.01572,0 0,0.33839 -1.01572,0 0,-0.33839 z m 1.35439,0 1.01571,0 0,0.33839 -1.01571,0 0,-0.33839 z m 1.35438,0 1.01572,0 0,0.33839 -1.01572,0 0,-0.33839 z m 1.3541,0 1.01572,0 0,0.33839 -1.01572,0 0,-0.33839 z m 1.35439,0 1.01571,0 0,0.33839 -1.01571,0 0,-0.33839 z m 1.35438,0 1.01572,0 0,0.33839 -1.01572,0 0,-0.33839 z m 1.3541,0 1.01572,0 0,0.33839 -1.01572,0 0,-0.33839 z m 1.35439,0 1.01572,0 0,0.33839 -1.01572,0 0,-0.33839 z m 1.35438,0 1.01572,0 0,0.33839 -1.01572,0 0,-0.33839 z m 1.3541,0 1.01572,0 0,0.33839 -1.01572,0 0,-0.33839 z m 1.35439,0 1.01572,0 0,0.33839 -1.01572,0 0,-0.33839 z m 1.35438,0 1.01572,0 0,0.33839 -1.01572,0 0,-0.33839 z m 1.35411,0 1.01571,0 0,0.33839 -1.01571,0 0,-0.33839 z m 1.35438,0 1.01572,0 0,0.33839 -1.01572,0 0,-0.33839 z m 1.3541,0 1.01572,0 0,0.33839 -1.01572,0 0,-0.33839 z m 1.35439,0 1.01571,0 0,0.33839 -1.01571,0 0,-0.33839 z m 1.35438,0 1.01572,0 0,0.33839 -1.01572,0 0,-0.33839 z m 1.3541,0 1.01572,0 0,0.33839 -1.01572,0 0,-0.33839 z m 1.35439,0 1.01572,0 0,0.33839 -1.01572,0 0,-0.33839 z m 1.35438,0 1.01572,0 0,0.33839 -1.01572,0 0,-0.33839 z m 1.3541,0 1.01572,0 0,0.33839 -1.01572,0 0,-0.33839 z m 1.35439,0 1.01572,0 0,0.33839 -1.01572,0 0,-0.33839 z m 1.35438,0 1.01572,0 0,0.33839 -1.01572,0 0,-0.33839 z m 1.35411,0 1.01571,0 0,0.33839 -1.01571,0 0,-0.33839 z m 1.35438,0 1.01572,0 0,0.33839 -1.01572,0 0,-0.33839 z m 1.35438,0 1.01572,0 0,0.33839 -1.01572,0 0,-0.33839 z m 1.35411,0 1.01571,0 0,0.33839 -1.01571,0 0,-0.33839 z m 1.35438,0 1.01572,0 0,0.33839 -1.01572,0 0,-0.33839 z m 1.35439,0 1.01571,0 0,0.33839 -1.01571,0 0,-0.33839 z m 1.3541,0 1.01572,0 0,0.33839 -1.01572,0 0,-0.33839 z m 1.35438,0 1.01572,0 0,0.33839 -1.01572,0 0,-0.33839 z m 1.35439,0 1.01571,0 0,0.33839 -1.01571,0 0,-0.33839 z m 1.3541,0 1.01572,0 0,0.33839 -1.01572,0 0,-0.33839 z m 1.35438,0 1.01572,0 0,0.33839 -1.01572,0 0,-0.33839 z m 1.35411,0 1.01571,0 0,0.33839 -1.01571,0 0,-0.33839 z m 1.35438,0 1.01572,0 0,0.33839 -1.01572,0 0,-0.33839 z m 1.35438,0 1.01572,0 0,0.33839 -1.01572,0 0,-0.33839 z m 1.35411,0 1.01571,0 0,0.33839 -1.01571,0 0,-0.33839 z m 1.35438,0 1.01572,0 0,0.33839 -1.01572,0 0,-0.33839 z m 1.35439,0 1.01571,0 0,0.33839 -1.01571,0 0,-0.33839 z m 1.3541,0 1.01572,0 0,0.33839 -1.01572,0 0,-0.33839 z m 1.35438,0 1.01572,0 0,0.33839 -1.01572,0 0,-0.33839 z m 1.35439,0 1.01571,0 0,0.33839 -1.01571,0 0,-0.33839 z m 1.3541,0 1.01572,0 0,0.33839 -1.01572,0 0,-0.33839 z m 1.35438,0 1.01572,0 0,0.33839 -1.01572,0 0,-0.33839 z m 1.35439,0 1.01572,0 0,0.33839 -1.01572,0 0,-0.33839 z m 1.3541,0 1.01572,0 0,0.33839 -1.01572,0 0,-0.33839 z m 1.35438,0 1.01572,0 0,0.33839 -1.01572,0 0,-0.33839 z m 1.35439,0 1.01572,0 0,0.33839 -1.01572,0 0,-0.33839 z m 1.3541,0 1.01572,0 0,0.33839 -1.01572,0 0,-0.33839 z m 1.35439,0 0.80405,0 0,0.55005 -0.33867,0 0,-0.38071 0.16933,0.16905 -0.63471,0 0,-0.33839 z m 0.80405,0.88872 0,1.01572 -0.33867,0 0,-1.01572 0.33867,0 z m 0,1.3541 0,1.01572 -0.33867,0 0,-1.01572 0.33867,0 z m 0,1.35439 0,1.01571 -0.33867,0 0,-1.01571 0.33867,0 z m 0,1.35438 0,1.01572 -0.33867,0 0,-1.01572 0.33867,0 z m 0,1.3541 0,1.01572 -0.33867,0 0,-1.01572 0.33867,0 z m 0,1.35439 0,1.01572 -0.33867,0 0,-1.01572 0.33867,0 z m 0,1.35438 0,1.01572 -0.33867,0 0,-1.01572 0.33867,0 z m 0,1.3541 0,1.01572 -0.33867,0 0,-1.01572 0.33867,0 z m 0,1.35439 0,1.01572 -0.33867,0 0,-1.01572 0.33867,0 z m 0,1.35438 0,1.01572 -0.33867,0 0,-1.01572 0.33867,0 z m 0,1.35411 0,1.01571 -0.33867,0 0,-1.01571 0.33867,0 z m 0,1.35438 0,0.33867 -1.01572,0 0,-0.33867 0.84638,0 -0.16933,0.16933 0,-0.16933 0.33867,0 z m -1.35439,0.33867 -1.01572,0 0,-0.33867 1.01572,0 0,0.33867 z m -1.3541,0 -1.01572,0 0,-0.33867 1.01572,0 0,0.33867 z m -1.35438,0 -1.01572,0 0,-0.33867 1.01572,0 0,0.33867 z m -1.35439,0 -1.01572,0 0,-0.33867 1.01572,0 0,0.33867 z m -1.3541,0 -1.01572,0 0,-0.33867 1.01572,0 0,0.33867 z m -1.35439,0 -1.01571,0 0,-0.33867 1.01571,0 0,0.33867 z m -1.3541,0 -1.01572,0 0,-0.33867 1.01572,0 0,0.33867 z m -1.35438,0 -1.01572,0 0,-0.33867 1.01572,0 0,0.33867 z m -1.35439,0 -1.01571,0 0,-0.33867 1.01571,0 0,0.33867 z m -1.3541,0 -1.01572,0 0,-0.33867 1.01572,0 0,0.33867 z m -1.35438,0 -1.01572,0 0,-0.33867 1.01572,0 0,0.33867 z m -1.35439,0 -1.01572,0 0,-0.33867 1.01572,0 0,0.33867 z m -1.3541,0 -1.01572,0 0,-0.33867 1.01572,0 0,0.33867 z m -1.35438,0 -1.01572,0 0,-0.33867 1.01572,0 0,0.33867 z m -1.35439,0 -1.01572,0 0,-0.33867 1.01572,0 0,0.33867 z m -1.3541,0 -1.01572,0 0,-0.33867 1.01572,0 0,0.33867 z m -1.35439,0 -1.01571,0 0,-0.33867 1.01571,0 0,0.33867 z m -1.35438,0 -1.01572,0 0,-0.33867 1.01572,0 0,0.33867 z m -1.3541,0 -1.01572,0 0,-0.33867 1.01572,0 0,0.33867 z m -1.35439,0 -1.01571,0 0,-0.33867 1.01571,0 0,0.33867 z m -1.35438,0 -1.01572,0 0,-0.33867 1.01572,0 0,0.33867 z m -1.3541,0 -1.01572,0 0,-0.33867 1.01572,0 0,0.33867 z m -1.35439,0 -1.01572,0 0,-0.33867 1.01572,0 0,0.33867 z m -1.35438,0 -1.01572,0 0,-0.33867 1.01572,0 0,0.33867 z m -1.3541,0 -1.01572,0 0,-0.33867 1.01572,0 0,0.33867 z m -1.35439,0 -1.01572,0 0,-0.33867 1.01572,0 0,0.33867 z m -1.3541,0 -1.01572,0 0,-0.33867 1.01572,0 0,0.33867 z m -1.35439,0 -1.01571,0 0,-0.33867 1.01571,0 0,0.33867 z m -1.35438,0 -1.01572,0 0,-0.33867 1.01572,0 0,0.33867 z m -1.3541,0 -1.01572,0 0,-0.33867 1.01572,0 0,0.33867 z m -1.35439,0 -1.01571,0 0,-0.33867 1.01571,0 0,0.33867 z m -1.35438,0 -1.01572,0 0,-0.33867 1.01572,0 0,0.33867 z m -1.3541,0 -1.01572,0 0,-0.33867 1.01572,0 0,0.33867 z m -1.35439,0 -1.01572,0 0,-0.33867 1.01572,0 0,0.33867 z m -1.35438,0 -1.01572,0 0,-0.33867 1.01572,0 0,0.33867 z m -1.3541,0 -1.01572,0 0,-0.33867 1.01572,0 0,0.33867 z m -1.35439,0 -1.01572,0 0,-0.33867 1.01572,0 0,0.33867 z m -1.35438,0 -1.01572,0 0,-0.33867 1.01572,0 0,0.33867 z m -1.35411,0 -1.01571,0 0,-0.33867 1.01571,0 0,0.33867 z m -1.35438,0 -1.01572,0 0,-0.33867 1.01572,0 0,0.33867 z m -1.35438,0 -1.01572,0 0,-0.33867 1.01572,0 0,0.33867 z m -1.35411,0 -1.01571,0 0,-0.33867 1.01571,0 0,0.33867 z m -1.35438,0 -1.01572,0 0,-0.33867 1.01572,0 0,0.33867 z m -1.35439,0 -1.01571,0 0,-0.33867 1.01571,0 0,0.33867 z m -1.3541,0 -1.01572,0 0,-0.33867 1.01572,0 0,0.33867 z m -1.35438,0 -1.01572,0 0,-0.33867 1.01572,0 0,0.33867 z m -1.3541,0 -1.01572,0 0,-0.33867 1.01572,0 0,0.33867 z m -1.35439,0 -1.01572,0 0,-0.33867 1.01572,0 0,0.33867 z m -1.35438,0 -1.01572,0 0,-0.33867 1.01572,0 0,0.33867 z m -1.35411,0 -1.01571,0 0,-0.33867 1.01571,0 0,0.33867 z m -1.35438,0 -1.01572,0 0,-0.33867 1.01572,0 0,0.33867 z m -1.35438,0 -1.01572,0 0,-0.33867 1.01572,0 0,0.33867 z m -1.35411,0 -1.01571,0 0,-0.33867 1.01571,0 0,0.33867 z m -1.35438,0 -1.01572,0 0,-0.33867 1.01572,0 0,0.33867 z m -1.35439,0 -1.01571,0 0,-0.33867 1.01571,0 0,0.33867 z m -1.3541,0 -1.01573,0 0,-0.33867 1.01573,0 0,0.33867 z m -1.35439,0 -1.01572,0 0,-0.33867 1.01572,0 0,0.33867 z m -1.35439,0 -1.01571,0 0,-0.33867 1.01571,0 0,0.33867 z m -1.3541,0 -1.01572,0 0,-0.33867 1.01572,0 0,0.33867 z m -1.35438,0 -1.01572,0 0,-0.33867 1.01572,0 0,0.33867 z m -1.35439,0 -1.015716,0 0,-0.33867 1.015716,0 0,0.33867 z m -1.354096,0 -1.01572,0 0,-0.33867 1.01572,0 0,0.33867 z"
     id="path3345"
     inkscape:connector-curvature="0" />
  <path
     style="fill:#ffffff;fill-opacity:1;fill-rule:evenodd;stroke:none"
     d="m 102.08166,66.08565 0,10.32651 11.46924,0 0,-10.32651 -11.46924,0 z"
     id="path3347"
     inkscape:connector-curvature="0" />
  <path
     style="fill:none;stroke:#41719c;stroke-width:0.33857143px;stroke-linecap:butt;stroke-linejoin:miter;stroke-miterlimit:8;stroke-dasharray:none;stroke-opacity:1"
     d="m 102.08166,66.08565 11.46924,0 0,10.32651 -11.46924,0 z"
     id="path3349"
     inkscape:connector-curvature="0" />
  <text
     xml:space="preserve"
     style="font-style:normal;font-variant:normal;font-weight:400;font-size:6.3499999px;line-height:125%;font-family:Calibri;text-align:start;letter-spacing:0px;word-spacing:0px;text-anchor:start;fill:#000000;fill-opacity:1;stroke:none"
     x="106.23246"
     y="73.384415"
     id="text3351"
     sodipodi:linespacing="125%"><tspan
       sodipodi:role="line"
       x="106.23246"
       y="73.384415"
       id="tspan3353"><tspan
         dx="0"
         dy="0"
         style="font-style:normal;font-variant:normal;font-weight:400;font-size:6.3499999px;font-family:Calibri;fill:#000000"
         id="tspan3355">1</tspan></tspan></text>
  <path
     style="fill:#ffffff;fill-opacity:1;fill-rule:evenodd;stroke:none"
     d="m 115.92072,66.33965 0,10.28417 11.46922,0 0,-10.28417 -11.46922,0 z"
     id="path3357"
     inkscape:connector-curvature="0" />
  <path
     style="fill:none;stroke:#41719c;stroke-width:0.33857143px;stroke-linecap:butt;stroke-linejoin:miter;stroke-miterlimit:8;stroke-dasharray:none;stroke-opacity:1"
     d="m 115.92072,66.33965 11.46922,0 0,10.28417 -11.46922,0 z"
     id="path3359"
     inkscape:connector-curvature="0" />
  <text
     xml:space="preserve"
     style="font-style:normal;font-variant:normal;font-weight:400;font-size:6.3499999px;line-height:125%;font-family:Calibri;text-align:start;letter-spacing:0px;word-spacing:0px;text-anchor:start;fill:#000000;fill-opacity:1;stroke:none"
     x="120.07269"
     y="73.613159"
     id="text3361"
     sodipodi:linespacing="125%"><tspan
       sodipodi:role="line"
       x="120.07269"
       y="73.613159"
       id="tspan3363"><tspan
         dx="0"
         dy="0"
         style="font-style:normal;font-variant:normal;font-weight:400;font-size:6.3499999px;font-family:Calibri;fill:#000000"
         id="tspan3365">2</tspan></tspan></text>
  <text
     xml:space="preserve"
     style="font-style:normal;font-variant:normal;font-weight:400;font-size:6.3499999px;line-height:125%;font-family:Calibri;text-align:start;letter-spacing:0px;word-spacing:0px;text-anchor:start;fill:#000000;fill-opacity:1;stroke:none"
     x="137.37329"
     y="73.81134"
     id="text3367"
     sodipodi:linespacing="125%"><tspan
       sodipodi:role="line"
       x="137.37329"
       y="73.81134"
       id="tspan3369"><tspan
         dx="0"
         dy="0"
         style="font-style:normal;font-variant:normal;font-weight:400;font-size:6.3499999px;font-family:Calibri;fill:#000000"
         id="tspan3371">…..</tspan></tspan></text>
  <path
     style="fill:#ffffff;fill-opacity:1;fill-rule:evenodd;stroke:none"
     d="m 156.38009,66.55131 0,10.2839 23.40385,0 0,-10.2839 -23.40385,0 z"
     id="path3373"
     inkscape:connector-curvature="0" />
  <path
     style="fill:none;stroke:#41719c;stroke-width:0.33857143px;stroke-linecap:butt;stroke-linejoin:miter;stroke-miterlimit:8;stroke-dasharray:none;stroke-opacity:1"
     d="m 156.38009,66.55131 23.40385,0 0,10.2839 -23.40385,0 z"
     id="path3375"
     inkscape:connector-curvature="0" />
  <text
     xml:space="preserve"
     style="font-style:normal;font-variant:normal;font-weight:400;font-size:6.3499999px;line-height:125%;font-family:Calibri;text-align:start;letter-spacing:0px;word-spacing:0px;text-anchor:start;fill:#000000;fill-opacity:1;stroke:none"
     x="160.29237"
     y="73.841904"
     id="text3377"
     sodipodi:linespacing="125%"><tspan
       sodipodi:role="line"
       x="160.29237"
       y="73.841904"
       id="tspan3379"><tspan
         dx="0"
         dy="0"
         style="font-style:normal;font-variant:normal;font-weight:400;font-size:6.3499999px;font-family:Calibri;fill:#000000"
         id="tspan3381">N</tspan></tspan></text>
  <text
     xml:space="preserve"
     style="font-style:normal;font-variant:normal;font-weight:400;font-size:4.23333311px;line-height:125%;font-family:Calibri;text-align:start;letter-spacing:0px;word-spacing:0px;text-anchor:start;fill:#000000;fill-opacity:1;stroke:none"
     x="164.39755"
     y="75.407806"
     id="text3383"
     sodipodi:linespacing="125%"><tspan
       sodipodi:role="line"
       x="164.39755"
       y="75.407806"
       id="tspan3385"><tspan
         dx="0"
         dy="0"
         style="font-style:normal;font-variant:normal;font-weight:400;font-size:4.23333311px;font-family:Calibri;fill:#000000"
         id="tspan3387">thread</tspan></tspan></text>
  <path
     style="fill:#ffffff;fill-opacity:1;fill-rule:evenodd;stroke:none"
     d="m 98.230454,37.603215 0,15.786095 85.066016,0 0,-15.786095 -85.066016,0 z"
     id="path3389"
     inkscape:connector-curvature="0" />
  <path
     style="fill:#41719c;fill-opacity:1;fill-rule:nonzero;stroke:#41719c;stroke-width:0.01058036px;stroke-linecap:butt;stroke-linejoin:round;stroke-miterlimit:4;stroke-dasharray:none;stroke-opacity:1"
     d="m 98.061124,53.38931 0,-1.01571 0.33867,0 0,1.01571 -0.33867,0 z m 0,-1.35438 0,-1.01572 0.33867,0 0,1.01572 -0.33867,0 z m 0,-1.35438 0,-1.015722 0.33867,0 0,1.015722 -0.33867,0 z m 0,-1.354106 0,-1.015718 0.33867,0 0,1.015718 -0.33867,0 z m 0,-1.354385 0,-1.015717 0.33867,0 0,1.015717 -0.33867,0 z m 0,-1.354384 0,-1.015718 0.33867,0 0,1.015718 -0.33867,0 z m 0,-1.354102 0,-1.015718 0.33867,0 0,1.015718 -0.33867,0 z m 0,-1.354385 0,-1.015718 0.33867,0 0,1.015718 -0.33867,0 z m 0,-1.354384 0,-1.015718 0.33867,0 0,1.015718 -0.33867,0 z m 0,-1.354102 0,-1.015718 0.33867,0 0,1.015718 -0.33867,0 z m 0,-1.354385 0,-1.015718 0.33867,0 0,1.015718 -0.33867,0 z m 0,-1.354102 0,-1.058051 0.29633,0 0,0.338384 -0.127,0 0.16934,-0.169333 0,0.889 -0.33867,0 z m 0.635,-1.058051 1.01572,0 0,0.338384 -1.01572,0 0,-0.338384 z m 1.354096,0 1.01572,0 0,0.338384 -1.01572,0 0,-0.338384 z m 1.35439,0 1.01571,0 0,0.338384 -1.01571,0 0,-0.338384 z m 1.35438,0 1.01572,0 0,0.338384 -1.01572,0 0,-0.338384 z m 1.3541,0 1.01572,0 0,0.338384 -1.01572,0 0,-0.338384 z m 1.35439,0 1.01571,0 0,0.338384 -1.01571,0 0,-0.338384 z m 1.3541,0 1.01573,0 0,0.338384 -1.01573,0 0,-0.338384 z m 1.35439,0 1.01572,0 0,0.338384 -1.01572,0 0,-0.338384 z m 1.35439,0 1.01572,0 0,0.338384 -1.01572,0 0,-0.338384 z m 1.3541,0 1.01572,0 0,0.338384 -1.01572,0 0,-0.338384 z m 1.35438,0 1.01572,0 0,0.338384 -1.01572,0 0,-0.338384 z m 1.35439,0 1.01572,0 0,0.338384 -1.01572,0 0,-0.338384 z m 1.3541,0 1.01572,0 0,0.338384 -1.01572,0 0,-0.338384 z m 1.35439,0 1.01571,0 0,0.338384 -1.01571,0 0,-0.338384 z m 1.35438,0 1.01572,0 0,0.338384 -1.01572,0 0,-0.338384 z m 1.3541,0 1.01572,0 0,0.338384 -1.01572,0 0,-0.338384 z m 1.35439,0 1.01571,0 0,0.338384 -1.01571,0 0,-0.338384 z m 1.35438,0 1.01572,0 0,0.338384 -1.01572,0 0,-0.338384 z m 1.3541,0 1.01572,0 0,0.338384 -1.01572,0 0,-0.338384 z m 1.35439,0 1.01572,0 0,0.338384 -1.01572,0 0,-0.338384 z m 1.35438,0 1.01572,0 0,0.338384 -1.01572,0 0,-0.338384 z m 1.3541,0 1.01572,0 0,0.338384 -1.01572,0 0,-0.338384 z m 1.35439,0 1.01572,0 0,0.338384 -1.01572,0 0,-0.338384 z m 1.35438,0 1.01572,0 0,0.338384 -1.01572,0 0,-0.338384 z m 1.35411,0 1.01571,0 0,0.338384 -1.01571,0 0,-0.338384 z m 1.35438,0 1.01572,0 0,0.338384 -1.01572,0 0,-0.338384 z m 1.3541,0 1.01572,0 0,0.338384 -1.01572,0 0,-0.338384 z m 1.35439,0 1.01571,0 0,0.338384 -1.01571,0 0,-0.338384 z m 1.35438,0 1.01572,0 0,0.338384 -1.01572,0 0,-0.338384 z m 1.3541,0 1.01572,0 0,0.338384 -1.01572,0 0,-0.338384 z m 1.35439,0 1.01572,0 0,0.338384 -1.01572,0 0,-0.338384 z m 1.35438,0 1.01572,0 0,0.338384 -1.01572,0 0,-0.338384 z m 1.3541,0 1.01572,0 0,0.338384 -1.01572,0 0,-0.338384 z m 1.35439,0 1.01572,0 0,0.338384 -1.01572,0 0,-0.338384 z m 1.35438,0 1.01572,0 0,0.338384 -1.01572,0 0,-0.338384 z m 1.35411,0 1.01571,0 0,0.338384 -1.01571,0 0,-0.338384 z m 1.35438,0 1.01572,0 0,0.338384 -1.01572,0 0,-0.338384 z m 1.35438,0 1.01572,0 0,0.338384 -1.01572,0 0,-0.338384 z m 1.35411,0 1.01571,0 0,0.338384 -1.01571,0 0,-0.338384 z m 1.35438,0 1.01572,0 0,0.338384 -1.01572,0 0,-0.338384 z m 1.35439,0 1.01571,0 0,0.338384 -1.01571,0 0,-0.338384 z m 1.3541,0 1.01572,0 0,0.338384 -1.01572,0 0,-0.338384 z m 1.35438,0 1.01572,0 0,0.338384 -1.01572,0 0,-0.338384 z m 1.35439,0 1.01571,0 0,0.338384 -1.01571,0 0,-0.338384 z m 1.3541,0 1.01572,0 0,0.338384 -1.01572,0 0,-0.338384 z m 1.35438,0 1.01572,0 0,0.338384 -1.01572,0 0,-0.338384 z m 1.35411,0 1.01571,0 0,0.338384 -1.01571,0 0,-0.338384 z m 1.35438,0 1.01572,0 0,0.338384 -1.01572,0 0,-0.338384 z m 1.35438,0 1.01572,0 0,0.338384 -1.01572,0 0,-0.338384 z m 1.35411,0 1.01571,0 0,0.338384 -1.01571,0 0,-0.338384 z m 1.35438,0 1.01572,0 0,0.338384 -1.01572,0 0,-0.338384 z m 1.35439,0 1.01571,0 0,0.338384 -1.01571,0 0,-0.338384 z m 1.3541,0 1.01572,0 0,0.338384 -1.01572,0 0,-0.338384 z m 1.35438,0 1.01572,0 0,0.338384 -1.01572,0 0,-0.338384 z m 1.35439,0 1.01571,0 0,0.338384 -1.01571,0 0,-0.338384 z m 1.3541,0 1.01572,0 0,0.338384 -1.01572,0 0,-0.338384 z m 1.35438,0 1.01572,0 0,0.338384 -1.01572,0 0,-0.338384 z m 1.35439,0 1.01572,0 0,0.338384 -1.01572,0 0,-0.338384 z m 1.3541,0 1.01572,0 0,0.338384 -1.01572,0 0,-0.338384 z m 1.35438,0 1.01572,0 0,0.338384 -1.01572,0 0,-0.338384 z m 1.35439,0 1.01572,0 0,0.338384 -1.01572,0 0,-0.338384 z m 1.3541,0 1.01572,0 0,0.338384 -1.01572,0 0,-0.338384 z m 1.35439,0 0.80405,0 0,0.550051 -0.33867,0 0,-0.381 0.16933,0.169333 -0.63471,0 0,-0.338384 z m 0.80405,0.888718 0,1.015717 -0.33867,0 0,-1.015717 0.33867,0 z m 0,1.354102 0,1.015718 -0.33867,0 0,-1.015718 0.33867,0 z m 0,1.354384 0,1.015718 -0.33867,0 0,-1.015718 0.33867,0 z m 0,1.354385 0,1.015717 -0.33867,0 0,-1.015717 0.33867,0 z m 0,1.354102 0,1.015718 -0.33867,0 0,-1.015718 0.33867,0 z m 0,1.354384 0,1.015718 -0.33867,0 0,-1.015718 0.33867,0 z m 0,1.354385 0,1.015718 -0.33867,0 0,-1.015718 0.33867,0 z m 0,1.354102 0,1.015718 -0.33867,0 0,-1.015718 0.33867,0 z m 0,1.354384 0,1.01572 -0.33867,0 0,-1.01572 0.33867,0 z m 0,1.35438 0,1.01572 -0.33867,0 0,-1.01572 0.33867,0 z m 0,1.35411 0,1.01571 -0.33867,0 0,-1.01571 0.33867,0 z m 0,1.35438 0,0.33867 -1.01572,0 0,-0.33867 0.84638,0 -0.16933,0.16933 0,-0.16933 0.33867,0 z m -1.35439,0.33867 -1.01572,0 0,-0.33867 1.01572,0 0,0.33867 z m -1.3541,0 -1.01572,0 0,-0.33867 1.01572,0 0,0.33867 z m -1.35438,0 -1.01572,0 0,-0.33867 1.01572,0 0,0.33867 z m -1.35439,0 -1.01572,0 0,-0.33867 1.01572,0 0,0.33867 z m -1.3541,0 -1.01572,0 0,-0.33867 1.01572,0 0,0.33867 z m -1.35439,0 -1.01571,0 0,-0.33867 1.01571,0 0,0.33867 z m -1.3541,0 -1.01572,0 0,-0.33867 1.01572,0 0,0.33867 z m -1.35438,0 -1.01572,0 0,-0.33867 1.01572,0 0,0.33867 z m -1.35439,0 -1.01571,0 0,-0.33867 1.01571,0 0,0.33867 z m -1.3541,0 -1.01572,0 0,-0.33867 1.01572,0 0,0.33867 z m -1.35438,0 -1.01572,0 0,-0.33867 1.01572,0 0,0.33867 z m -1.35439,0 -1.01572,0 0,-0.33867 1.01572,0 0,0.33867 z m -1.3541,0 -1.01572,0 0,-0.33867 1.01572,0 0,0.33867 z m -1.35438,0 -1.01572,0 0,-0.33867 1.01572,0 0,0.33867 z m -1.35439,0 -1.01572,0 0,-0.33867 1.01572,0 0,0.33867 z m -1.3541,0 -1.01572,0 0,-0.33867 1.01572,0 0,0.33867 z m -1.35439,0 -1.01571,0 0,-0.33867 1.01571,0 0,0.33867 z m -1.35438,0 -1.01572,0 0,-0.33867 1.01572,0 0,0.33867 z m -1.3541,0 -1.01572,0 0,-0.33867 1.01572,0 0,0.33867 z m -1.35439,0 -1.01571,0 0,-0.33867 1.01571,0 0,0.33867 z m -1.35438,0 -1.01572,0 0,-0.33867 1.01572,0 0,0.33867 z m -1.3541,0 -1.01572,0 0,-0.33867 1.01572,0 0,0.33867 z m -1.35439,0 -1.01572,0 0,-0.33867 1.01572,0 0,0.33867 z m -1.35438,0 -1.01572,0 0,-0.33867 1.01572,0 0,0.33867 z m -1.3541,0 -1.01572,0 0,-0.33867 1.01572,0 0,0.33867 z m -1.35439,0 -1.01572,0 0,-0.33867 1.01572,0 0,0.33867 z m -1.3541,0 -1.01572,0 0,-0.33867 1.01572,0 0,0.33867 z m -1.35439,0 -1.01571,0 0,-0.33867 1.01571,0 0,0.33867 z m -1.35438,0 -1.01572,0 0,-0.33867 1.01572,0 0,0.33867 z m -1.3541,0 -1.01572,0 0,-0.33867 1.01572,0 0,0.33867 z m -1.35439,0 -1.01571,0 0,-0.33867 1.01571,0 0,0.33867 z m -1.35438,0 -1.01572,0 0,-0.33867 1.01572,0 0,0.33867 z m -1.3541,0 -1.01572,0 0,-0.33867 1.01572,0 0,0.33867 z m -1.35439,0 -1.01572,0 0,-0.33867 1.01572,0 0,0.33867 z m -1.35438,0 -1.01572,0 0,-0.33867 1.01572,0 0,0.33867 z m -1.3541,0 -1.01572,0 0,-0.33867 1.01572,0 0,0.33867 z m -1.35439,0 -1.01572,0 0,-0.33867 1.01572,0 0,0.33867 z m -1.35438,0 -1.01572,0 0,-0.33867 1.01572,0 0,0.33867 z m -1.35411,0 -1.01571,0 0,-0.33867 1.01571,0 0,0.33867 z m -1.35438,0 -1.01572,0 0,-0.33867 1.01572,0 0,0.33867 z m -1.35438,0 -1.01572,0 0,-0.33867 1.01572,0 0,0.33867 z m -1.35411,0 -1.01571,0 0,-0.33867 1.01571,0 0,0.33867 z m -1.35438,0 -1.01572,0 0,-0.33867 1.01572,0 0,0.33867 z m -1.35439,0 -1.01571,0 0,-0.33867 1.01571,0 0,0.33867 z m -1.3541,0 -1.01572,0 0,-0.33867 1.01572,0 0,0.33867 z m -1.35438,0 -1.01572,0 0,-0.33867 1.01572,0 0,0.33867 z m -1.3541,0 -1.01572,0 0,-0.33867 1.01572,0 0,0.33867 z m -1.35439,0 -1.01572,0 0,-0.33867 1.01572,0 0,0.33867 z m -1.35438,0 -1.01572,0 0,-0.33867 1.01572,0 0,0.33867 z m -1.35411,0 -1.01571,0 0,-0.33867 1.01571,0 0,0.33867 z m -1.35438,0 -1.01572,0 0,-0.33867 1.01572,0 0,0.33867 z m -1.35438,0 -1.01572,0 0,-0.33867 1.01572,0 0,0.33867 z m -1.35411,0 -1.01571,0 0,-0.33867 1.01571,0 0,0.33867 z m -1.35438,0 -1.01572,0 0,-0.33867 1.01572,0 0,0.33867 z m -1.35439,0 -1.01571,0 0,-0.33867 1.01571,0 0,0.33867 z m -1.3541,0 -1.01573,0 0,-0.33867 1.01573,0 0,0.33867 z m -1.35439,0 -1.01572,0 0,-0.33867 1.01572,0 0,0.33867 z m -1.35439,0 -1.01571,0 0,-0.33867 1.01571,0 0,0.33867 z m -1.3541,0 -1.01572,0 0,-0.33867 1.01572,0 0,0.33867 z m -1.35438,0 -1.01572,0 0,-0.33867 1.01572,0 0,0.33867 z m -1.35439,0 -1.015716,0 0,-0.33867 1.015716,0 0,0.33867 z m -1.354096,0 -1.01572,0 0,-0.33867 1.01572,0 0,0.33867 z"
     id="path3391"
     inkscape:connector-curvature="0" />
  <path
     style="fill:#ffffff;fill-opacity:1;fill-rule:evenodd;stroke:none"
     d="m 101.82766,41.666086 0,7.575691 8.71842,0 0,-7.575691 -8.71842,0 z"
     id="path3393"
     inkscape:connector-curvature="0" />
  <path
     style="fill:none;stroke:#41719c;stroke-width:0.33857143px;stroke-linecap:butt;stroke-linejoin:miter;stroke-miterlimit:8;stroke-dasharray:none;stroke-opacity:1"
     d="m 101.82766,41.666086 8.71842,0 0,7.575691 -8.71842,0 z"
     id="path3395"
     inkscape:connector-curvature="0" />
  <text
     xml:space="preserve"
     style="font-style:normal;font-variant:normal;font-weight:400;font-size:6.3499999px;line-height:125%;font-family:Calibri;text-align:start;letter-spacing:0px;word-spacing:0px;text-anchor:start;fill:#000000;fill-opacity:1;stroke:none"
     x="104.59406"
     y="47.591263"
     id="text3397"
     sodipodi:linespacing="125%"><tspan
       sodipodi:role="line"
       x="104.59406"
       y="47.591263"
       id="tspan3399"><tspan
         dx="0"
         dy="0"
         style="font-style:normal;font-variant:normal;font-weight:400;font-size:6.3499999px;font-family:Calibri;fill:#000000"
         id="tspan3401">1</tspan></tspan></text>
  <path
     style="fill:#ffffff;fill-opacity:1;fill-rule:evenodd;stroke:none"
     d="m 112.78918,41.793086 0,7.448691 8.76046,0 0,-7.448691 -8.76046,0 z"
     id="path3403"
     inkscape:connector-curvature="0" />
  <path
     style="fill:none;stroke:#41719c;stroke-width:0.33857143px;stroke-linecap:butt;stroke-linejoin:miter;stroke-miterlimit:8;stroke-dasharray:none;stroke-opacity:1"
     d="m 112.78918,41.793086 8.76046,0 0,7.448691 -8.76046,0 z"
     id="path3405"
     inkscape:connector-curvature="0" />
  <text
     xml:space="preserve"
     style="font-style:normal;font-variant:normal;font-weight:400;font-size:6.3499999px;line-height:125%;font-family:Calibri;text-align:start;letter-spacing:0px;word-spacing:0px;text-anchor:start;fill:#000000;fill-opacity:1;stroke:none"
     x="115.57298"
     y="47.648438"
     id="text3407"
     sodipodi:linespacing="125%"><tspan
       sodipodi:role="line"
       x="115.57298"
       y="47.648438"
       id="tspan3409"><tspan
         dx="0"
         dy="0"
         style="font-style:normal;font-variant:normal;font-weight:400;font-size:6.3499999px;font-family:Calibri;fill:#000000"
         id="tspan3411">2</tspan></tspan></text>
  <path
     style="fill:#ffffff;fill-opacity:1;fill-rule:evenodd;stroke:none"
     d="m 123.79274,41.793086 0,7.448691 8.76046,0 0,-7.448691 -8.76046,0 z"
     id="path3413"
     inkscape:connector-curvature="0" />
  <path
     style="fill:none;stroke:#41719c;stroke-width:0.33857143px;stroke-linecap:butt;stroke-linejoin:miter;stroke-miterlimit:8;stroke-dasharray:none;stroke-opacity:1"
     d="m 123.79274,41.793086 8.76046,0 0,7.448691 -8.76046,0 z"
     id="path3415"
     inkscape:connector-curvature="0" />
  <text
     xml:space="preserve"
     style="font-style:normal;font-variant:normal;font-weight:400;font-size:6.3499999px;line-height:125%;font-family:Calibri;text-align:start;letter-spacing:0px;word-spacing:0px;text-anchor:start;fill:#000000;fill-opacity:1;stroke:none"
     x="126.58216"
     y="47.648438"
     id="text3417"
     sodipodi:linespacing="125%"><tspan
       sodipodi:role="line"
       x="126.58216"
       y="47.648438"
       id="tspan3419"><tspan
         dx="0"
         dy="0"
         style="font-style:normal;font-variant:normal;font-weight:400;font-size:6.3499999px;font-family:Calibri;fill:#000000"
         id="tspan3421">3</tspan></tspan></text>
  <text
     xml:space="preserve"
     style="font-style:normal;font-variant:normal;font-weight:400;font-size:6.3499999px;line-height:125%;font-family:Calibri;text-align:start;letter-spacing:0px;word-spacing:0px;text-anchor:start;fill:#000000;fill-opacity:1;stroke:none"
     x="137.3734"
     y="47.503571"
     id="text3423"
     sodipodi:linespacing="125%"><tspan
       sodipodi:role="line"
       x="137.3734"
       y="47.503571"
       id="tspan3425"><tspan
         dx="0"
         dy="0"
         style="font-style:normal;font-variant:normal;font-weight:400;font-size:6.3499999px;font-family:Calibri;fill:#000000"
         id="tspan3427">…..</tspan></tspan></text>
  <path
     style="fill:#ffffff;fill-opacity:1;fill-rule:evenodd;stroke:none"
     d="m 155.87238,40.26965 0,10.32623 23.91156,0 0,-10.32623 -23.91156,0 z"
     id="path3429"
     inkscape:connector-curvature="0" />
  <path
     style="fill:none;stroke:#41719c;stroke-width:0.33857143px;stroke-linecap:butt;stroke-linejoin:miter;stroke-miterlimit:8;stroke-dasharray:none;stroke-opacity:1"
     d="m 155.87238,40.26965 23.91156,0 0,10.32623 -23.91156,0 z"
     id="path3431"
     inkscape:connector-curvature="0" />
  <text
     xml:space="preserve"
     style="font-style:normal;font-variant:normal;font-weight:400;font-size:6.3499999px;line-height:125%;font-family:Calibri;text-align:start;letter-spacing:0px;word-spacing:0px;text-anchor:start;fill:#000000;fill-opacity:1;stroke:none"
     x="159.00369"
     y="47.572212"
     id="text3433"
     sodipodi:linespacing="125%"><tspan
       sodipodi:role="line"
       x="159.00369"
       y="47.572212"
       id="tspan3435"><tspan
         dx="0"
         dy="0"
         style="font-style:normal;font-variant:normal;font-weight:400;font-size:6.3499999px;font-family:Calibri;fill:#000000"
         id="tspan3437">N</tspan></tspan></text>
  <text
     xml:space="preserve"
     style="font-style:normal;font-variant:normal;font-weight:400;font-size:4.23333311px;line-height:125%;font-family:Calibri;text-align:start;letter-spacing:0px;word-spacing:0px;text-anchor:start;fill:#000000;fill-opacity:1;stroke:none"
     x="163.10887"
     y="49.1381"
     id="text3439"
     sodipodi:linespacing="125%"><tspan
       sodipodi:role="line"
       x="163.10887"
       y="49.1381"
       id="tspan3441"><tspan
         dx="0"
         dy="0"
         style="font-style:normal;font-variant:normal;font-weight:400;font-size:4.23333311px;font-family:Calibri;fill:#000000"
         id="tspan3443">channel</tspan></tspan></text>
  <path
     style="fill:none;stroke:#000000;stroke-width:0.35444194px;stroke-linecap:butt;stroke-linejoin:miter;stroke-miterlimit:8;stroke-dasharray:none;stroke-opacity:1"
     d="m 113.03782,56.12941 c 8.49065,-10.220395 17.22458,-16.970868 19.50466,-15.071513 2.28543,1.893711 -2.74546,11.717583 -11.23612,21.943623 -8.49094,10.22068 -17.22488,16.97087 -19.50495,15.0718 -2.285436,-1.89936 2.74546,-11.72323 11.23641,-21.94391"
     id="path3445"
     inkscape:connector-curvature="0" />
  <path
     style="fill:none;stroke:#000000;stroke-width:0.35444194px;stroke-linecap:butt;stroke-linejoin:miter;stroke-miterlimit:8;stroke-dasharray:none;stroke-opacity:1"
     d="m 109.49339,61.30339 c -5.62357,-9.43779 -8.12068,-18.314528 -5.5708,-19.838246 2.55524,-1.518356 9.17844,4.898813 14.802,14.331246 5.62864,9.43215 8.12038,18.31453 5.57051,19.83288 -2.54988,1.52344 -9.17844,-4.89345 -14.80171,-14.32588"
     id="path3447"
     inkscape:connector-curvature="0" />
  <path
     style="fill:#000000;fill-opacity:1;fill-rule:nonzero;stroke:#000000;stroke-width:0.00529018px;stroke-linecap:butt;stroke-linejoin:round;stroke-miterlimit:10;stroke-dasharray:none;stroke-opacity:1"
     d="m 105.17114,19.193577 -0.12163,18.489225 0.35447,0 0.11627,-18.483863 -0.34911,-0.0054 z m -0.99991,18.129391 1.04225,2.121465 1.07385,-2.111023 -2.1161,-0.01044 z"
     id="path3449"
     inkscape:connector-curvature="0" />
  <path
     style="fill:#000000;fill-opacity:1;fill-rule:nonzero;stroke:#000000;stroke-width:0.00529018px;stroke-linecap:butt;stroke-linejoin:round;stroke-miterlimit:10;stroke-dasharray:none;stroke-opacity:1"
     d="m 118.00521,19.10891 -0.28561,18.796 0.35447,0.0054 0.28561,-18.796 -0.35447,-0.0054 z m -1.15852,18.425725 1.02079,2.131907 1.09531,-2.100298 -2.1161,-0.03161 z"
     id="path3451"
     inkscape:connector-curvature="0" />
  <path
     style="fill:#000000;fill-opacity:1;fill-rule:nonzero;stroke:#000000;stroke-width:0.01058036px;stroke-linecap:butt;stroke-linejoin:round;stroke-miterlimit:10;stroke-dasharray:none;stroke-opacity:1"
     d="m 168.2831,18.685577 0,18.981138 -0.34911,0 0,-18.981138 0.34911,0 z m 0.87799,18.632029 -1.05805,2.116102 -1.05805,-2.116102 2.1161,0 z"
     id="path3453"
     inkscape:connector-curvature="0" />
  <path
     style="fill:#000000;fill-opacity:1;fill-rule:nonzero;stroke:#000000;stroke-width:0.00529018px;stroke-linecap:butt;stroke-linejoin:round;stroke-miterlimit:10;stroke-dasharray:none;stroke-opacity:1"
     d="m 134.94419,18.638164 -5.69751,19.261384 0.33867,0.100471 5.6975,-19.261384 -0.33866,-0.100471 z m -6.44342,18.67408 0.41261,2.327769 1.61883,-1.72974 -2.03144,-0.598029 z"
     id="path3455"
     inkscape:connector-curvature="0" />
  <path
     style="fill:#ffffff;fill-opacity:1;fill-rule:evenodd;stroke:none"
     d="m 162.4744,6.15858 0,10.030177 11.2999,0 0,-10.030177 -11.2999,0 z"
     id="path3457"
     inkscape:connector-curvature="0" />
  <path
     style="fill:none;stroke:#41719c;stroke-width:0.33857143px;stroke-linecap:butt;stroke-linejoin:miter;stroke-miterlimit:8;stroke-dasharray:none;stroke-opacity:1"
     d="m 162.4744,6.15858 11.2999,0 0,10.030177 -11.2999,0 z"
     id="path3459"
     inkscape:connector-curvature="0" />
  <text
     xml:space="preserve"
     style="font-style:normal;font-variant:normal;font-weight:400;font-size:6.3499999px;line-height:125%;font-family:Calibri;text-align:start;letter-spacing:0px;word-spacing:0px;text-anchor:start;fill:#000000;fill-opacity:1;stroke:none"
     x="165.44577"
     y="13.309816"
     id="text3461"
     sodipodi:linespacing="125%"><tspan
       sodipodi:role="line"
       x="165.44577"
       y="13.309816"
       id="tspan3463"><tspan
         dx="0"
         dy="0"
         style="font-style:normal;font-variant:normal;font-weight:400;font-size:6.3499999px;font-family:Calibri;fill:#000000"
         id="tspan3465">M</tspan></tspan></text>
  <path
     style="fill:#ffffff;fill-opacity:1;fill-rule:evenodd;stroke:none"
     d="m 113.08523,5.946914 0,10.07251 11.25756,0 0,-10.07251 -11.25756,0 z"
     id="path3467"
     inkscape:connector-curvature="0" />
  <path
     style="fill:none;stroke:#41719c;stroke-width:0.33857143px;stroke-linecap:butt;stroke-linejoin:miter;stroke-miterlimit:8;stroke-dasharray:none;stroke-opacity:1"
     d="m 113.08523,5.946914 11.25756,0 0,10.07251 -11.25756,0 z"
     id="path3469"
     inkscape:connector-curvature="0" />
  <text
     xml:space="preserve"
     style="font-style:normal;font-variant:normal;font-weight:400;font-size:6.3499999px;line-height:125%;font-family:Calibri;text-align:start;letter-spacing:0px;word-spacing:0px;text-anchor:start;fill:#000000;fill-opacity:1;stroke:none"
     x="116.02306"
     y="13.121012"
     id="text3471"
     sodipodi:linespacing="125%"><tspan
       sodipodi:role="line"
       x="116.02306"
       y="13.121012"
       id="tspan3473"><tspan
         dx="0"
         dy="0"
         style="font-style:normal;font-variant:normal;font-weight:400;font-size:6.3499999px;font-family:Calibri;fill:#000000"
         id="tspan3475">M</tspan></tspan></text>
  <path
     style="fill:#ffffff;fill-opacity:1;fill-rule:evenodd;stroke:none"
     d="m 129.16738,6.243247 0,10.07251 11.2999,0 0,-10.07251 -11.2999,0 z"
     id="path3477"
     inkscape:connector-curvature="0" />
  <path
     style="fill:none;stroke:#41719c;stroke-width:0.33857143px;stroke-linecap:butt;stroke-linejoin:miter;stroke-miterlimit:8;stroke-dasharray:none;stroke-opacity:1"
     d="m 129.16738,6.243247 11.2999,0 0,10.07251 -11.2999,0 z"
     id="path3479"
     inkscape:connector-curvature="0" />
  <text
     xml:space="preserve"
     style="font-style:normal;font-variant:normal;font-weight:400;font-size:6.3499999px;line-height:125%;font-family:Calibri;text-align:start;letter-spacing:0px;word-spacing:0px;text-anchor:start;fill:#000000;fill-opacity:1;stroke:none"
     x="132.72232"
     y="13.430118"
     id="text3481"
     sodipodi:linespacing="125%"><tspan
       sodipodi:role="line"
       x="132.72232"
       y="13.430118"
       id="tspan3483"><tspan
         dx="0"
         dy="0"
         style="font-style:normal;font-variant:normal;font-weight:400;font-size:6.3499999px;font-family:Calibri;fill:#000000"
         id="tspan3485">O</tspan></tspan></text>
  <path
     style="fill:#ffffff;fill-opacity:1;fill-rule:evenodd;stroke:none"
     d="m 99.246174,5.946914 0,10.07251 11.299906,0 0,-10.07251 -11.299906,0 z"
     id="path3487"
     inkscape:connector-curvature="0" />
  <path
     style="fill:none;stroke:#41719c;stroke-width:0.33857143px;stroke-linecap:butt;stroke-linejoin:miter;stroke-miterlimit:8;stroke-dasharray:none;stroke-opacity:1"
     d="m 99.246174,5.946914 11.299906,0 0,10.07251 -11.299906,0 z"
     id="path3489"
     inkscape:connector-curvature="0" />
  <text
     xml:space="preserve"
     style="font-style:normal;font-variant:normal;font-weight:400;font-size:6.3499999px;line-height:125%;font-family:Calibri;text-align:start;letter-spacing:0px;word-spacing:0px;text-anchor:start;fill:#000000;fill-opacity:1;stroke:none"
     x="102.21717"
     y="13.121012"
     id="text3491"
     sodipodi:linespacing="125%"><tspan
       sodipodi:role="line"
       x="102.21717"
       y="13.121012"
       id="tspan3493"><tspan
         dx="0"
         dy="0"
         style="font-style:normal;font-variant:normal;font-weight:400;font-size:6.3499999px;font-family:Calibri;fill:#000000"
         id="tspan3495">M</tspan></tspan></text>
  <text
     xml:space="preserve"
     style="font-style:normal;font-variant:normal;font-weight:400;font-size:6.3499999px;line-height:125%;font-family:Calibri;text-align:start;letter-spacing:0px;word-spacing:0px;text-anchor:start;fill:#000000;fill-opacity:1;stroke:none"
     x="6.7917595"
     y="15.03778"
     id="text3497"
     sodipodi:linespacing="125%"><tspan
       sodipodi:role="line"
       x="6.7917595"
       y="15.03778"
       id="tspan3499"><tspan
         dx="0"
         dy="0"
         style="font-style:normal;font-variant:normal;font-weight:400;font-size:6.3499999px;font-family:Calibri;fill:#000000"
         id="tspan3501">Masters &amp; Outstations</tspan></tspan></text>
  <text
     xml:space="preserve"
     style="font-size:6.3499999px;font-style:normal;font-variant:normal;font-weight:400;text-align:start;line-height:125%;letter-spacing:0px;word-spacing:0px;text-anchor:start;fill:#000000;fill-opacity:1;stroke:none;font-family:Calibri"
     x="6.819469"
     y="45.815464"
     id="text3503"
     sodipodi:linespacing="125%"><tspan
       sodipodi:role="line"
       x="6.819469"
       y="45.815464"
       id="tspan3069"><tspan
         dx="0"
         dy="0"
         style="font-size:6.3499999px;font-style:normal;font-variant:normal;font-weight:400;fill:#000000;font-family:Calibri"
         id="tspan3507">Channels (TCP/TLS/serial)</tspan></tspan></text>
  <text
     xml:space="preserve"
     style="font-style:normal;font-variant:normal;font-weight:400;font-size:6.3499999px;line-height:125%;font-family:Calibri;text-align:start;letter-spacing:0px;word-spacing:0px;text-anchor:start;fill:#000000;fill-opacity:1;stroke:none"
     x="6.976337"
     y="74.408852"
     id="text3509"
     sodipodi:linespacing="125%"><tspan
       sodipodi:role="line"
       x="6.976337"
       y="74.408852"
       id="tspan3511"><tspan
         dx="0"
         dy="0"
         style="font-style:normal;font-variant:normal;font-weight:400;font-size:6.3499999px;font-family:Calibri;fill:#000000"
         id="tspan3513">Thread pool (DNP3Manager)</tspan></tspan></text>
</svg>
